<?xml version="1.0" encoding="UTF-8" standalone="no"?>
<!-- Created with Inkscape (http://www.inkscape.org/) -->
<svg xmlns:dc="http://purl.org/dc/elements/1.1/" xmlns:cc="http://creativecommons.org/ns#" xmlns:rdf="http://www.w3.org/1999/02/22-rdf-syntax-ns#" xmlns:svg="http://www.w3.org/2000/svg" xmlns="http://www.w3.org/2000/svg" xmlns:sodipodi="http://sodipodi.sourceforge.net/DTD/sodipodi-0.dtd" xmlns:inkscape="http://www.inkscape.org/namespaces/inkscape" width="300" height="500" id="svg2" version="1.1" inkscape:version="0.48.2 r9819" sodipodi:docname="volumetric flask.svg">
  <defs id="defs4"/>
  <sodipodi:namedview id="base" pagecolor="#ffffff" bordercolor="#666666" borderopacity="1.0" inkscape:pageopacity="0.0" inkscape:pageshadow="2" inkscape:zoom="1.062" inkscape:cx="150" inkscape:cy="250" inkscape:document-units="px" inkscape:current-layer="layer1" showgrid="false" inkscape:window-width="1280" inkscape:window-height="750" inkscape:window-x="-8" inkscape:window-y="-8" inkscape:window-maximized="1" showguides="true" inkscape:guide-bbox="true"/>
  <metadata id="metadata7">
    <rdf:RDF>
      <cc:Work rdf:about="">
        <dc:format>image/svg+xml</dc:format>
        <dc:type rdf:resource="http://purl.org/dc/dcmitype/StillImage"/>
        <dc:title/>
      </cc:Work>
    </rdf:RDF>
  </metadata>
  <g inkscape:label="Ebene 1" inkscape:groupmode="layer" id="layer1" transform="translate(0,-552.36218)">
    <g id="g3031">
      <path style="fill:none;stroke:#1a1a18;stroke-width:3;stroke-linecap:round;stroke-linejoin:round;stroke-miterlimit:10;stroke-opacity:1;stroke-dasharray:none" d="m 149.86931,612.71539 c -6.00549,0.15923 -12.18802,-0.31766 -18.0837,0.23603 -2.40519,1.02177 -0.72514,4.484 -1.21699,6.73615 2.45774,1.09117 4.61267,2.0858 3.88471,5.15248 0.38078,9.00429 0.93451,18.00453 1.20987,27.01131 -0.52852,1.16834 -1.29825,2.09546 -1.8778,3.21276 -0.61171,4.80214 -0.10253,10.725 -0.2694,15.97205 0,55.16085 0,110.32175 0,165.4826" id="path2020" inkscape:connector-curvature="0"/>
      <path d="m 149.86931,613.52522 18.75786,0 m -18.75786,0 -18.49649,0" style="fill:none;stroke:#1a1a18;stroke-width:0.37797186;stroke-linecap:round;stroke-linejoin:round;stroke-miterlimit:10;stroke-opacity:1;stroke-dasharray:none" id="path2028" inkscape:connector-curvature="0"/>
      <path d="m 168.01306,619.68415 -36.64024,0 m 33.81048,2.1472 -30.32832,0 m 29.16312,30.02062 -27.55071,0 m 28.63268,3.75157 -29.97568,0" style="fill:none;stroke:#1a1a18;stroke-width:1.80943978;stroke-linecap:round;stroke-linejoin:round;stroke-miterlimit:10;stroke-opacity:1;stroke-dasharray:none" id="path2032" inkscape:connector-curvature="0" sodipodi:nodetypes="cccccccc"/>
      <path style="fill:none;stroke:#1a1a18;stroke-width:3;stroke-linecap:round;stroke-linejoin:round;stroke-miterlimit:10;stroke-opacity:1;stroke-dasharray:none" d="m 149.86931,612.71539 c 6.3451,0.53001 13.40172,-1.06817 19.29667,0.80822 0.73423,2.99643 1.05551,7.37359 -3.21678,8.03793 -0.97384,9.64572 -1.15044,20.4603 -1.60839,30.55943 2.12509,1.98218 2.52558,5.68856 2.14318,10.17826 0,58.07325 0,116.14649 0,174.21974 m -16.61468,164.03173 c 18.31435,0 36.62829,0 54.94264,0 2.6844,-1.72393 4.53807,-4.57215 6.69895,-7.23773 2.2815,-3.26729 4.70977,-6.62143 6.43356,-10.71591 1.86372,-3.22953 3.13556,-6.74402 4.29038,-10.72797 1.51189,-4.02886 2.21315,-9.47901 2.94738,-13.92866 0.42381,-5.66616 0.11661,-11.62039 -0.53479,-16.88811 -0.85687,-4.37848 -1.92364,-9.4166 -3.48619,-13.40594 -1.61643,-4.65359 -4.13477,-9.4961 -7.22972,-15.5451 -11.26919,-21.84331 -25.65464,-42.50253 -41.81816,-60.8414 -2.37037,-2.62695 -4.23771,-5.67972 -5.09458,-9.91171 -0.54484,-1.51137 -0.56093,-3.54795 -0.53479,-5.63339 m -16.61468,164.83592 c -18.22709,0 -36.45418,0 -54.681269,0 -2.988149,-1.93736 -5.064783,-5.31189 -7.77255,-8.5727 -2.083831,-3.29744 -4.572092,-7.1891 -6.164158,-10.71992 -1.864246,-4.38886 -3.287792,-7.57319 -4.286362,-12.33234 -1.301671,-4.12818 -2.14885,-9.71718 -2.147202,-15.01031 -0.628599,-5.0748 0.358269,-10.81414 1.073601,-16.08391 0.952369,-4.02552 2.067627,-7.98643 3.486188,-11.79353 2.740778,-6.64374 7.700895,-16.14663 12.062932,-23.85646 10.52061,-18.45841 23.22324,-36.17006 36.98495,-51.46047 2.26695,-2.91725 4.30828,-6.32612 4.82517,-10.98531 0.58389,-0.83724 0.1339,-2.72775 0.26539,-4.02097" id="path2044" inkscape:connector-curvature="0"/>
      <path d="m 154.16693,958.75222 c 5.52885,0 10.01626,-4.47937 10.01626,-10.01223 0,-5.53287 -4.48741,-10.00821 -10.01626,-10.00821 l -20.45471,0 c -5.52884,0 -10.01625,4.47534 -10.01625,10.00821 0,5.53286 4.48741,10.01223 10.01625,10.01223 l 20.45471,0 z" style="fill:#1a1a18;fill-opacity:1;fill-rule:nonzero;stroke:none" id="path2056" inkscape:connector-curvature="0"/>
      <g style="font-size:48.25172806px" id="text2058">
        <path d="m 194.40235,948.77704 0,-6.74299 0.82792,0 0,6.74299 z" style="font-size:9.41994381px;font-variant:normal;font-weight:normal;font-stretch:normal;writing-mode:lr-tb;fill:#1a1a18;fill-opacity:1;fill-rule:nonzero;stroke:none;font-family:Helvetica;-inkscape-font-specification:Helvetica" id="path3761"/>
        <path d="m 186.57366,948.77704 0,-4.88476 0.74053,0 0,0.68534 c 0.15332,-0.23917 0.35723,-0.43159 0.61174,-0.57725 0.25451,-0.14565 0.54429,-0.21847 0.86932,-0.21848 0.36184,10e-6 0.65851,0.0751 0.89002,0.22538 0.23151,0.15026 0.3948,0.36031 0.48986,0.63014 0.38636,-0.57034 0.88925,-0.85551 1.50866,-0.85552 0.48449,10e-6 0.85705,0.13416 1.1177,0.40247 0.26064,0.26831 0.39096,0.6815 0.39096,1.23958 l 0,3.3531 -0.82332,0 0,-3.07712 c -1e-5,-0.33117 -0.0268,-0.56958 -0.0805,-0.71524 -0.0537,-0.14565 -0.15103,-0.26294 -0.29208,-0.35186 -0.14106,-0.0889 -0.30664,-0.13339 -0.49675,-0.13339 -0.34344,0 -0.62862,0.11422 -0.85552,0.34267 -0.22692,0.22845 -0.34038,0.59411 -0.34037,1.097 l 0,2.83794 -0.82793,0 0,-3.17371 c 0,-0.36797 -0.0675,-0.64394 -0.20238,-0.82793 -0.13492,-0.18398 -0.3557,-0.27597 -0.66234,-0.27597 -0.23305,0 -0.44846,0.0613 -0.64624,0.18398 -0.19778,0.12266 -0.34114,0.30204 -0.43006,0.53815 -0.0889,0.23612 -0.13339,0.57649 -0.13339,1.02111 l 0,2.53437 z" style="font-size:9.41994381px;font-variant:normal;font-weight:normal;font-stretch:normal;writing-mode:lr-tb;fill:#1a1a18;fill-opacity:1;fill-rule:nonzero;stroke:none;font-family:Helvetica;-inkscape-font-specification:Helvetica" id="path3763"/>
        <path d="m 178.48751,945.45154 c 0,-0.79726 0.082,-1.4389 0.24607,-1.92492 0.16406,-0.48602 0.40783,-0.86089 0.73134,-1.1246 0.3235,-0.2637 0.73056,-0.39556 1.22119,-0.39557 0.36183,10e-6 0.6792,0.0728 0.95211,0.21848 0.27291,0.14566 0.49828,0.35571 0.67614,0.63015 0.17785,0.27444 0.31737,0.60868 0.41856,1.00271 0.10119,0.39403 0.15178,0.92528 0.15179,1.59375 -1e-5,0.79113 -0.0813,1.42971 -0.24378,1.91573 -0.16252,0.48602 -0.40553,0.86165 -0.72903,1.12689 -0.32351,0.26525 -0.73211,0.39787 -1.22579,0.39787 -0.65008,0 -1.16063,-0.23305 -1.53166,-0.69914 -0.44463,-0.56115 -0.66694,-1.47493 -0.66694,-2.74135 z m 0.85092,0 c 0,1.10697 0.12955,1.84367 0.38866,2.2101 0.25911,0.36643 0.57878,0.54965 0.95902,0.54965 0.38023,0 0.6999,-0.18398 0.95901,-0.55195 0.25911,-0.36796 0.38866,-1.1039 0.38866,-2.2078 0,-1.11003 -0.12955,-1.84749 -0.38866,-2.2124 -0.25911,-0.36489 -0.58185,-0.54734 -0.96821,-0.54735 -0.38024,10e-6 -0.68381,0.16099 -0.91072,0.48296 -0.28517,0.4109 -0.42776,1.16983 -0.42776,2.27679 z" style="font-size:9.41994381px;font-variant:normal;font-weight:normal;font-stretch:normal;writing-mode:lr-tb;fill:#1a1a18;fill-opacity:1;fill-rule:nonzero;stroke:none;font-family:Helvetica;-inkscape-font-specification:Helvetica" id="path3765"/>
        <path d="m 173.25022,945.45154 c 0,-0.79726 0.082,-1.4389 0.24608,-1.92492 0.16405,-0.48602 0.40782,-0.86089 0.73133,-1.1246 0.3235,-0.2637 0.73056,-0.39556 1.22119,-0.39557 0.36183,10e-6 0.6792,0.0728 0.95211,0.21848 0.27291,0.14566 0.49829,0.35571 0.67614,0.63015 0.17785,0.27444 0.31737,0.60868 0.41856,1.00271 0.10119,0.39403 0.15178,0.92528 0.15179,1.59375 -1e-5,0.79113 -0.0813,1.42971 -0.24378,1.91573 -0.16252,0.48602 -0.40553,0.86165 -0.72903,1.12689 -0.32351,0.26525 -0.73211,0.39787 -1.22579,0.39787 -0.65008,0 -1.16063,-0.23305 -1.53166,-0.69914 -0.44463,-0.56115 -0.66694,-1.47493 -0.66694,-2.74135 z m 0.85092,0 c 0,1.10697 0.12955,1.84367 0.38866,2.2101 0.25911,0.36643 0.57878,0.54965 0.95902,0.54965 0.38023,0 0.6999,-0.18398 0.95901,-0.55195 0.25911,-0.36796 0.38866,-1.1039 0.38867,-2.2078 -1e-5,-1.11003 -0.12956,-1.84749 -0.38867,-2.2124 -0.25911,-0.36489 -0.58185,-0.54734 -0.96821,-0.54735 -0.38024,10e-6 -0.68381,0.16099 -0.91072,0.48296 -0.28517,0.4109 -0.42776,1.16983 -0.42776,2.27679 z" style="font-size:9.41994381px;font-variant:normal;font-weight:normal;font-stretch:normal;writing-mode:lr-tb;fill:#1a1a18;fill-opacity:1;fill-rule:nonzero;stroke:none;font-family:Helvetica;-inkscape-font-specification:Helvetica" id="path3767"/>
        <path d="m 168.02202,947.0108 0.86932,-0.0736 c 0.0644,0.42316 0.21388,0.7413 0.44846,0.95441 0.23458,0.21311 0.51745,0.31967 0.84863,0.31967 0.39862,0 0.73593,-0.15025 1.0119,-0.45076 0.27597,-0.3005 0.41396,-0.69913 0.41397,-1.19589 -10e-6,-0.47222 -0.13263,-0.84479 -0.39787,-1.1177 -0.26524,-0.2729 -0.61251,-0.40936 -1.0418,-0.40936 -0.26678,0 -0.50749,0.0606 -0.72214,0.18168 -0.21465,0.12113 -0.3833,0.27828 -0.50595,0.47146 l -0.77733,-0.10119 0.65314,-3.46349 3.35309,0 0,0.79113 -2.69075,0 -0.36337,1.81224 c 0.40476,-0.28211 0.82946,-0.42316 1.27409,-0.42317 0.58874,10e-6 1.08549,0.20392 1.49026,0.61175 0.40476,0.40783 0.60714,0.93218 0.60715,1.57306 -1e-5,0.61021 -0.17786,1.13763 -0.53356,1.58225 -0.43236,0.54582 -1.02264,0.81873 -1.77083,0.81873 -0.61328,0 -1.11387,-0.17172 -1.50177,-0.51516 -0.3879,-0.34343 -0.60944,-0.79879 -0.66464,-1.36607 z" style="font-size:9.41994381px;font-variant:normal;font-weight:normal;font-stretch:normal;writing-mode:lr-tb;fill:#1a1a18;fill-opacity:1;fill-rule:nonzero;stroke:none;font-family:Helvetica;-inkscape-font-specification:Helvetica" id="path3769"/>
      </g>
      <path d="m 149.99276,607.85483 13.67936,0 -0.14073,0 0,2.13916 0,0.14074 -0.13672,2.14318 0.13672,0 0,0.14475 m -13.53863,-4.56783 -13.82814,0 0.14475,0 0.14073,2.13916 -0.14073,0 0,0.14074 0.14073,0 0.14074,2.14318 -0.14074,0 0,0.14475 m 4.12955,-8.55664 0,3.98881 m 9.41311,-3.98881 -22.38478,0 -0.14476,0 0,0.14074 -0.13671,0 0,0.14475 -0.14476,0 0,0.14074 0,3.13636 0,0.14476 0.14476,0 0,0.14475 0.13671,0 0,0.13671 0.14476,0 8.70139,0 m 23.09247,-3.98881 0,3.98881 m -9.40908,-3.98881 22.236,0 0.14476,0 0.14073,0 0,0.14074 0.14476,0 0,0.14475 0,0.14074 0,3.13636 0,0.14476 0,0.14475 -0.14476,0 0,0.13671 -0.14073,0 -0.14476,0 -8.69737,0 m -27.22202,0 13.68339,0 m 13.53863,0 -13.53863,0 m -13.54266,2.2799 13.54266,0 m 13.53863,0 -13.53863,0 m 20.10086,-2.2799 0.14074,0 m 0,0 0.14475,0 m -40.63197,0 -0.14074,0 m 6.8437,2.13916 13.54266,0 m 13.53863,0 -13.53863,0 m -13.40192,2.28392 13.40192,0 m 13.40191,0 -13.40191,0" style="fill:none;stroke:#1a1a18;stroke-width:2.70000005;stroke-linecap:round;stroke-linejoin:round;stroke-miterlimit:10;stroke-opacity:1;stroke-dasharray:none" id="path2080" inkscape:connector-curvature="0" sodipodi:nodetypes="cccccccccccccccccccccccccccccccccccccccccccccccccccccccccccccccccccccccccccc"/>
    </g>
  </g>
</svg>